<svg xmlns="http://www.w3.org/2000/svg" xmlns:xlink="http://www.w3.org/1999/xlink" viewBox="0 0 400 300"><defs><linearGradient id="linear-gradient" x1="3787.59" y1="157.74" x2="3818.91" y2="130.7" gradientTransform="matrix(-1, 0, 0, 1, 3975.73, 0)" gradientUnits="userSpaceOnUse"><stop offset="0" stop-color="#fff" stop-opacity="0"/><stop offset="0.99" stop-color="gray"/></linearGradient><linearGradient id="linear-gradient-2" x1="3739.96" y1="206.1" x2="3771.28" y2="179.06" xlink:href="#linear-gradient"/><linearGradient id="linear-gradient-3" x1="3704.85" y1="248.19" x2="3734.23" y2="222.82" xlink:href="#linear-gradient"/></defs><title>141-150</title><g style="isolation:isolate"><g id="Layer_2" data-name="Layer 2"><path d="M44.65,153.13,167.56,81.65a5.81,5.81,0,0,1,5.81,0L357.18,186.84a5.81,5.81,0,0,1,0,10.08L239.66,264.78a19,19,0,0,1-19,0l-176-101.59A5.81,5.81,0,0,1,44.65,153.13Z" fill="#35721c"/><polyline points="117.84 122.06 45.55 163.61 100.84 195.53 200.95 139.7" fill="#f78546"/><polyline points="124.81 132.81 177.47 163.7 208 145.15 164.89 119.98" opacity="0.63" fill="url(#linear-gradient)" style="mix-blend-mode:multiply"/><ellipse cx="160.85" cy="72.54" rx="37.71" ry="52.42" transform="translate(-14.15 49.96) rotate(-16.92)" fill="#f78546"/><path d="M182.93,137.59s-1-15.6-1.34-19.47c-.33-3.49-1.49-18.82-11.08-23.67-12.12-6.12-26.1-14.07-39-10.37-10.46,3-14,39.22-13.92,41.64C117.79,130.07,150.26,153,182.93,137.59Z" fill="#2b415d"/><path d="M162.11,90.22s2.25,13.58-10.55,14.65c-8.95.75-7-6.51-7-6.51s-4.38,3.55-9,.81,3-13.57,6.45-14.29S153.79,84.38,162.11,90.22Z" fill="#68e1fd"/><circle cx="164.9" cy="56.08" r="10.11" fill="#4b1b13"/><path d="M136.11,64.52a12.19,12.19,0,0,1-2.64-7.07,11.46,11.46,0,0,1,.17-3.72,5.19,5.19,0,0,1,2.41-3,12.39,12.39,0,0,0,2.35-2S164.83,43.58,167.86,59h0c.56,4.31.23,17.32-11.59,22.77-12,5.53-6.43-14.08-6.43-14.08" fill="#4b1b13"/><path d="M142.5,86.41l15.77-7.71-1.33,11s-.11.21-.32.54c-2.86,2.64-7.26,3.42-11.63,3.14a2,2,0,0,1-1.84-1.79C143,89.84,142.8,88.12,142.5,86.41Z" fill="#ffac73"/><path d="M135.61,61.58s-.93-5.15,4.87-6c1.55-.24,3-.25,4,1.2,1.16,1.78,1.32,3.9,3,5.41a5.91,5.91,0,0,0,6.16,1c0,1.71-.21,3-2.3,3.55S137.24,64.95,135.61,61.58Z" fill="#ffac73"/><path d="M156.48,56.7c-6.3-2.24-12.29-3.56-19-2.66a1.15,1.15,0,0,0-1.09,1.13c-.49-2.67-1.14-9.42,4.3-11.47,6.84-2.57,18.25.68,21.41,6.84a19.6,19.6,0,0,1,2.19,9.84C162.09,58.61,159.24,57.68,156.48,56.7Z" fill="#4b1b13"/><path d="M142.92,89.25l.25,2.31s10.5-.3,12-8.83Z" fill="#e28e54"/><path d="M135.56,61.11s.05,10.14,0,13.9c-.05,4,3.92,14.36,8.15,14.35,6.58,0,13.22-7.94,13.22-9.68,0,0,6.6-4.11,2.87-7.27s-4,2.19-4,2.19-2-2.94-2.16-10.83A34.44,34.44,0,0,1,135.56,61.11Z" fill="#ffac73"/><path d="M126.19,133.61a19.54,19.54,0,0,1-1.76-1.22,117.77,117.77,0,0,1,3.16-23.45c.32-1.34,2.39-.77,2.07.57a115.2,115.2,0,0,0-3.13,24.28Z" fill="#17283a"/><path d="M166.43,142.46a6.4,6.4,0,0,0-.91.08l-.79-27.06a1.07,1.07,0,0,1,2.14,0l.78,26.89A7.46,7.46,0,0,0,166.43,142.46Z" fill="#17283a"/><path d="M158.61,82.1A16,16,0,0,1,154,73.64c-.81-5.05,5.94-2.77,7-.59S161.73,80.93,158.61,82.1Z" fill="#4b1b13"/><polyline points="172.89 153.57 100.84 195.53 169.7 235.27 248.45 182.53" fill="#68e1fd"/><polyline points="172.43 181.16 225.1 212.05 255.63 193.5 212.51 168.33" opacity="0.63" fill="url(#linear-gradient-2)" style="mix-blend-mode:multiply"/><ellipse cx="198.29" cy="113.11" rx="37.71" ry="52.42" transform="translate(-24.34 62.61) rotate(-16.92)" fill="#68e1fd"/><path d="M229.54,184.81s-1-16.07-1.38-20c-.34-3.59-1.54-19.38-11.41-24.37-12.48-6.3-26.87-14.49-40.17-10.68-10.77,3.09-14.45,40.38-14.33,42.87C162.46,177.06,195.89,200.68,229.54,184.81Z" fill="#2b415d"/><path d="M204,142.32c0,.85-1,2.13-1.37,2.84-3.2,6.1-6,12.54-9.07,18.77s-3.54,23.19-3.9,24.31c0,.11-12.25-4.45-12.35-4.38s-1-8.85-1-9.39c-.14-9.76-.86-14.74.93-22.25,1.27-5.33,3.59-8.94,4.82-14.27.58-2.54,1-5.59,2.26-7.9C185.73,127.47,204,136.61,204,142.32Z" fill="#68e1fd"/><path d="M209.51,190.14c-.33,0-.66,0-1,.05q.14-10.07.05-20.15a1.1,1.1,0,0,1,2.21,0q.09,10-.05,20Z" fill="#17283a"/><path d="M173.09,181.72h0a1.42,1.42,0,0,0-.23-.11l-.6-.33-.7-.39-.58-.32q0-12,.71-23.92c.08-1.41,2.29-1.42,2.21,0q-.69,12.32-.72,24.65A1.1,1.1,0,0,1,173.09,181.72Z" fill="#17283a"/><path d="M184.31,130.05s-2.39,16.33-1,18l5.59-4.38,3.33,7,13.91-12.08Z" fill="#2b415d"/><path d="M181.86,105s.05,10.44,0,14.32c-.06,4.09,1.67,15.13,8.39,14.78s13.61-8.17,13.61-10c0,0,6.79-4.23,3-7.48s-4.14,2.25-4.14,2.25-2.08-3-2.22-11.15A35.46,35.46,0,0,1,181.86,105Z" fill="#ffac73"/><path d="M203.56,134.92c-3.43,3.16-9,3.75-14.16,3a1.68,1.68,0,0,1-1.55-1.46c-.08-1.58-.18-3.16-.32-4.74l17.73-8.67-1.37,11.3S203.77,134.58,203.56,134.92Z" fill="#ffac73"/><path d="M191.4,138.14c-.69-.05-1.38-.12-2.06-.22a1.62,1.62,0,0,1-1.49-1.41c0-.82-.08-1.64-.14-2.47,3.75,0,10.43-.88,14-7.84A15.16,15.16,0,0,1,191.4,138.14Z" fill="#e5894a"/><path d="M226.65,134.06c-6.27-6.93-9.3-20.71-9.3-20.71l-.08,0c-1.77-15.15-12.58-19.74-22-20.27s-16.61,3-17.12,9.4,3.76,9,3.76,9,16,4.64,17.06,2.66,1.26-11.12,2.2.86c.31,4,.23,7.93.2,11.89a85.86,85.86,0,0,0,1.22,14.43c.58,3.56,1.11,7.54,4.58,9.48a18.7,18.7,0,0,0,18-.25,229.86,229.86,0,0,1,3.93,26.89s11-.69,12.28-17.11S232.92,141,226.65,134.06Z" fill="#4b1b13"/><ellipse cx="243.45" cy="168.09" rx="37.71" ry="52.42" transform="translate(-38.39 78.14) rotate(-16.92)" fill="#ffc127"/><path d="M282.63,177.33v50.84l-60.57,37-10-5.47L169.7,235.27l51-35" fill="#ffc127"/><polyline points="210.82 225.54 258.84 253.71 290.15 235.63 250.91 212.71" opacity="0.63" fill="url(#linear-gradient-3)" style="mix-blend-mode:multiply"/><path d="M276,233.83s-1-16.07-1.38-20c-.34-3.59-1.54-19.38-11.41-24.37-12.48-6.3-26.87-14.49-40.17-10.68-10.77,3.09-14.45,40.38-14.33,42.87C209,226.08,242.4,249.7,276,233.83Z" fill="#68e1fd"/><path d="M228.94,157.47s-2.64-2.16-4.18-7.17,1-12.27,6.45-12.94,7.09,2.13,7.09,2.13,20.22-3.58,23.34,12.28h0c.57,4.44,3,20.55-10.14,24.08s-8.42-15.13-8.42-15.13" fill="#4b1b13"/><path d="M228.37,154s.05,10.44,0,14.32c-.06,4.09,1.67,15.13,8.39,14.78s13.61-8.17,13.61-10c0,0,6.79-4.23,3-7.48s-4.14,2.25-4.14,2.25-2.08-3-2.22-11.15A35.46,35.46,0,0,1,228.37,154Z" fill="#ffac73"/><path d="M250.07,183.93c-3.43,3.16-9,3.75-14.16,3a1.68,1.68,0,0,1-1.55-1.46c-.08-1.58-.18-3.16-.32-4.74l17.73-8.67-1.37,11.3S250.28,183.6,250.07,183.93Z" fill="#ffac73"/><path d="M237.91,187.15c-.69-.05-1.38-.12-2.06-.22a1.62,1.62,0,0,1-1.49-1.41c0-.82-.08-1.64-.14-2.47,3.75,0,10.43-.88,14-7.84A15.16,15.16,0,0,1,237.91,187.15Z" fill="#e5894a"/><path d="M251.77,180.3c-1.43,1-2.91,1.86-4.4,2.73a36.17,36.17,0,0,1-6.61,3.22c-1.92.65-5.27,1.6-6.41-.81a3.69,3.69,0,0,1-.07-1.32,8.73,8.73,0,0,0-.06-1.61l0,0a5.17,5.17,0,0,1-2.26-1.64.47.47,0,0,1-.09-.2h0s-4.66,13.33-3.92,14,6.32-2.63,6.32-2.63,2.4,4.91,3.35,5.4,13.21-10.29,14.85-13.36Z" fill="#d4dee8"/><path d="M229.5,194c-.28.11-.9,2.94,0,5.63,0,0,2.29,1,2.72.87s4.18-4.38,4-4.62-2.29-4.14-2.29-4.14Z" fill="#f47a63"/><path d="M229.5,199.62s-8.2,31.93-7.64,32.2,7.67,3.94,10.19,4.11l.17-35.44" fill="#f47a63"/></g></g></svg>